<?xml version="1.0" encoding="UTF-8" standalone="no"?>
<svg
   xmlns:dc="http://purl.org/dc/elements/1.1/"
   xmlns:cc="http://creativecommons.org/ns#"
   xmlns:rdf="http://www.w3.org/1999/02/22-rdf-syntax-ns#"
   xmlns:svg="http://www.w3.org/2000/svg"
   xmlns="http://www.w3.org/2000/svg"
   xmlns:sodipodi="http://sodipodi.sourceforge.net/DTD/sodipodi-0.dtd"
   xmlns:inkscape="http://www.inkscape.org/namespaces/inkscape"
   width="670"
   height="397"
   viewBox="0 0 670 397"
   version="1.1"
   id="svg194"
   sodipodi:docname="cloud_670_397.svg"
   inkscape:version="0.92.2 (unknown)">
  <metadata
     id="metadata200">
    <rdf:RDF>
      <cc:Work
         rdf:about="">
        <dc:format>image/svg+xml</dc:format>
        <dc:type
           rdf:resource="http://purl.org/dc/dcmitype/StillImage" />
        <dc:title></dc:title>
      </cc:Work>
    </rdf:RDF>
  </metadata>
  <defs
     id="defs198" />
  <sodipodi:namedview
     pagecolor="#ffffff"
     bordercolor="#666666"
     borderopacity="1"
     objecttolerance="10"
     gridtolerance="10"
     guidetolerance="10"
     inkscape:pageopacity="0"
     inkscape:pageshadow="2"
     inkscape:window-width="1301"
     inkscape:window-height="744"
     id="namedview196"
     showgrid="false"
     inkscape:zoom="1.1694459"
     inkscape:cx="287.19969"
     inkscape:cy="132.96113"
     inkscape:window-x="65"
     inkscape:window-y="24"
     inkscape:window-maximized="1"
     inkscape:current-layer="svg194" />
  <path
     d="m 544.4101,92.564782 a 134.41933,134.37182 0 0 0 -47.91403,5.353731 l -0.66118,-0.616896 A 157.75923,157.70347 0 0 0 225.78406,60.618709 C 218.79751,59.473056 211.65669,58.635849 204.40568,58.129118 97.998631,50.858629 6.622578,119.59777 0.34130095,211.62449 -5.9399757,303.67328 75.231753,384.19943 181.6388,391.46992 c 38.45905,2.64381 74.93453,-4.64871 106.1646,-19.38798 A 172.48166,172.4207 0 0 0 365.53696,396.58129 172.65798,172.59695 0 0 0 491.11842,354.41245 134.77196,134.72433 0 0 0 669.683,236.23401 134.794,134.74636 0 0 0 544.38806,92.564782 Z"
     id="path192"
     inkscape:connector-curvature="0"
     style="stroke-width:2.20356727" />
</svg>
