<svg xmlns="http://www.w3.org/2000/svg" width="671" height="398" viewBox="0 0 671 398"><path fill="#d7cb70" fill-opacity=".3" d="M545.41 92.96c-16.66-1.14-32.81.8-47.91 5.34l-.65-.61C474.6 44.13 423.6 4.89 361.85.66c-54.23-3.71-103.93 20.47-135.08 60.31-7-1.15-14.12-1.99-21.37-2.48C98.98 51.2 7.6 119.99 1.32 212.1c-6.28 92.12 74.89 172.7 181.31 179.99 38.45 2.63 74.94-4.67 106.16-19.41a172.43 172.43 0 0 0 77.75 24.51A172.63 172.63 0 0 0 492.1 355a134.82 134.82 0 0 0 34.93 7.08c74.26 5.08 138.57-51.04 143.64-125.36 5.07-74.32-51.01-138.68-125.27-143.76z"/></svg>