<?xml version="1.0" encoding="UTF-8" standalone="no"?>
<svg
   xmlns="http://www.w3.org/2000/svg"
   width="571"
   height="461"
   viewBox="0 0 571 461"
   id="sun"
>
  <path
    fill="#f8e94c"
    d="m 128.49,424.34 85.58,-101.76 c 0.16,-0.2 -0.1,-0.79 -0.59,-1.31 l -11.3,-12.03 c -0.49,-0.52 -1.04,-0.8 -1.23,-0.62 l -95.36,91.35 c -0.57,0.55 -0.34,1.74 0.53,2.66 l 19.87,21.15 c 0.87,0.92 1.99,1.17 2.5,0.56 z"
    id="beam1" />
  <path
    fill="#f8e94c"
    d="M 428.37,448.31 363.49,340.3 c -0.13,-0.21 -0.68,-0.2 -1.24,0.05 l -12.72,5.43 c -0.55,0.23 -0.92,0.6 -0.81,0.83 l 53.86,112.71 c 0.33,0.68 1.38,0.89 2.36,0.47 l 22.37,-9.55 c 0.98,-0.41 1.45,-1.28 1.06,-1.93 z"
    id="beam2" />
  <path
    fill="#f8e94c"
    d="M 560.83,291.7 435.75,252.11 c -0.24,-0.07 -0.28,-0.67 -0.08,-1.33 l 4.57,-15.12 c 0.2,-0.66 0.56,-1.16 0.81,-1.1 l 129.04,26.5 c 0.77,0.15 1.12,1.22 0.77,2.38 l -8.03,26.6 c -0.35,1.16 -1.25,1.9 -2,1.67 z"
    id="beam3" />
  <path
    fill="#f8e94c"
    d="m 518.4,40.32 -89.88,78.45 c -0.18,0.16 -0.17,0.75 0.01,1.33 l 4.2,13.25 c 0.19,0.58 0.48,0.94 0.67,0.81 l 93.52,-66.98 c 0.56,-0.4 0.75,-1.55 0.43,-2.57 l -7.39,-23.3 c -0.32,-1.03 -1.02,-1.47 -1.56,-1 z"
    id="beam4" />
  <path
    fill="#f8e94c"
    d="m 10.66,140.28 144.96,34.02 c 0.28,0.07 0.36,0.7 0.18,1.4 l -4.2,16.09 c -0.19,0.7 -0.57,1.24 -0.86,1.2 L 2.14,172.91 c -0.9,-0.12 -1.36,-1.22 -1.04,-2.46 l 7.4,-28.3 c 0.32,-1.24 1.29,-2.08 2.16,-1.87 z"
    id="beam5" />
  <path
    fill="#f8e94c"
    d="m 132.69,0.22 74.92,81.81 c 0.15,0.16 -0.08,0.74 -0.5,1.3 l -9.66,12.8 c -0.42,0.57 -0.9,0.9 -1.06,0.77 L 113.1,26.18 c -0.5,-0.43 -0.31,-1.57 0.43,-2.55 l 17,-22.52 c 0.74,-0.99 1.71,-1.38 2.16,-0.9 z"
     id="beam6" />
  <circle
    fill="#ffcf08"
    cx="299"
    cy="202"
    r="131"
    id="disk" />
</svg>
